<svg width="345" height="132" viewBox="0 0 345 132" fill="none" xmlns="http://www.w3.org/2000/svg">
<ellipse cx="228.5" cy="57.9963" rx="57.5" ry="57.9963" fill="#F1CFFC"/>
<path d="M72.2063 62.1722C72.7807 62.4297 91.5714 72.1061 101.931 77.2458C114.561 83.5137 125.915 95.1315 136.701 102.711C146.059 109.294 144.921 122.673 153.59 121.603C158.508 120.989 156.913 122.385 160.621 116.31C161.326 115.158 162.217 112.926 165.972 109.284C169.344 106.014 172.663 103.361 175.777 101.433C182.747 97.1135 201.088 84.3946 208.491 81.1929C216.483 77.7438 220.201 76.226 227.809 72.8786C231.908 71.0727 235.784 69.3583 239.472 68.1657C241.877 67.3831 244.276 66.5428 246.604 65.5196C247.504 65.1232 249.778 64.4897 249.22 63.7714C248.737 63.148 248.441 61.2811 248.428 61.2574C248.841 61.8673 225.928 70.6594 220.124 73.1428C211.162 76.9747 196.997 82.9649 188.532 88.3045C185.881 89.9748 183.439 91.5774 181.169 93.1156C183.016 91.2691 184.8 89.5987 186.654 88.4536C193.705 84.0829 198.659 80.993 206.153 77.7574C209.351 76.3784 212.502 74.8369 215.666 73.363C221.646 70.5713 228.092 68.6604 234.074 65.8754C236.039 64.9572 247.4 61.5014 247.907 61.0541C247.511 60.4443 247.89 59.1534 247.527 58.5436C247.279 58.1235 242.586 59.9937 240.416 60.8881C238.327 61.7487 224.346 66.6411 218.958 69.2601C210.204 73.5223 201.246 76.9951 192.677 81.9552C185.965 85.8346 172.908 96.3478 165.733 102.873C167.067 101.301 168.37 99.8104 169.738 98.6178C170.765 97.7234 173.523 95.328 177.225 91.7841C180.55 88.606 184.561 85.882 187.621 84.0084C194.464 79.8241 199.381 77.3237 206.634 74.2372C211.585 72.1298 227.46 63.9238 230.218 62.6465C232.223 61.7182 245.791 55.4503 246.57 55.7925C246.61 55.7044 246.661 55.6908 246.711 55.6739C246.13 53.1802 247.208 53.5766 244.017 54.9251C241.39 56.033 235.912 58.2827 233.302 59.4516C228.024 61.8097 222.401 64.2728 217.215 66.8444C208.619 71.1134 203.211 74.3727 194.373 78.1809C186.241 81.6808 168.189 94.9655 162.922 100.295C150.624 112.736 151.817 102.436 138.152 90.1408C130.846 83.568 124.622 75.877 116.281 71.7605C105.394 66.3904 94.4972 57.9947 72.999 49.4229C71.2758 51.9707 70.3118 52.6348 70.1236 52.7398C70.3151 52.6517 71.2086 52.3569 72.8344 52.9634C102.831 64.1407 94.2218 61.1964 106.529 68.9789C118.128 76.3208 125.979 83.3545 135.149 92.1466C139.089 95.9311 142.935 100.664 147.295 106.77C147.322 106.807 147.332 107.515 147.497 108.436C144.91 105.343 141.891 100.563 136.996 95.1213C129.976 87.3186 122.472 81.5249 114.333 76.4801C103.614 69.8394 91.8133 61.271 69.3779 52.5263C65.5217 58.3267 64.8902 55.1013 68.827 56.5378C94.4435 65.872 84.4233 64.0797 103.385 73.5528C114.927 79.3091 123.486 86.1734 134.252 96.2834C138.397 100.176 142.29 106.258 146.899 112.55C146.916 112.57 146.909 112.865 146.923 113.312C145.216 110.788 142.771 107.064 138.75 102.057C129.029 89.9613 102.757 72.7159 66.3715 56.2058C66.1263 56.4633 61.2221 58.032 62.5321 59.9361C63.13 60.7831 69.1461 60.8305 72.2063 62.1722Z" fill="#19766D"/>
<path d="M254.811 65.1409C254.583 65.2019 254.331 65.2764 254.076 65.3544C253.619 64.653 253.128 63.9991 253.081 62.7591C239.652 66.4047 228.96 72.9945 216.172 78.8525C215.601 79.11 215.029 79.3709 214.462 79.625C207.092 82.925 202.581 86.1945 197.519 88.5085C194.509 89.8773 173.064 104.073 171.217 106.106C169.389 108.119 164.972 117.053 163.87 118.649C163.108 119.76 161.046 121.844 159.756 122.4C154.744 124.565 150.128 122.986 148.943 119.171C148.002 116.155 145.856 110.358 144.747 107.356C142.977 102.549 139.48 99.9331 135.372 97.0702C121.788 87.6107 107.848 77.958 93.0776 69.9893C87.3269 66.8925 80.8069 62.7964 74.5019 60.7228C73.3127 60.3332 66.5106 56.7452 62.8828 59.4896C61.4585 60.5636 60.7766 61.1193 60.3433 62.6337C59.4968 63.7281 60.5314 64.897 60.1451 66.652C74.9688 65.6932 127.817 102.284 137.962 109.684C140.891 111.822 140.192 123.9 144.431 128.264C150.686 134.708 158.792 131.117 162.275 129.914C167.055 128.258 169.856 123.446 172.702 119.31C176.088 114.387 173.347 112.74 183.75 104.978C193.004 98.0697 242.534 75.6169 246.87 74.6275C249.749 73.977 256.209 70.7685 259 69.952C258.919 67.5227 254.905 67.5295 254.811 65.1409Z" fill="#19766D"/>
<path d="M70.1342 52.7402C70.0866 52.764 70.0832 52.7606 70.1342 52.7402Z" fill="#19766D"/>
<path d="M246.758 55.6562C246.745 55.663 246.731 55.6664 246.718 55.6731C246.721 55.69 246.725 55.7035 246.728 55.7237L246.758 55.6562Z" fill="#19766D"/>
</svg>
