<svg width="171" height="117" viewBox="0 0 171 117" fill="none" xmlns="http://www.w3.org/2000/svg">
<g clip-path="url(#clip0_407_26)">
<path d="M169.835 54.6623C169.775 54.4954 169.69 54.3325 169.587 54.1827C169.483 54.033 169.361 53.8958 169.226 53.7807C169.091 53.6656 168.943 53.572 168.789 53.5094L98.096 24.7056C97.9927 24.6628 97.8879 24.6078 97.7812 24.5395C97.6744 24.4712 97.5656 24.3892 97.4541 24.2919C97.3427 24.1946 97.2282 24.0825 97.1103 23.9535C96.9924 23.8245 96.8712 23.6787 96.7458 23.5148C96.5593 23.271 96.369 22.9873 96.1783 22.6682C95.9875 22.3491 95.796 21.9946 95.6077 21.6093C95.4192 21.2241 95.2339 20.8082 95.0553 20.3661C94.8764 19.9237 94.7042 19.4556 94.5422 18.9656C94.3789 18.475 94.2248 17.963 94.0819 17.4342C93.9392 16.9052 93.8076 16.3588 93.6892 15.7998C93.5705 15.2403 93.4655 14.668 93.3751 14.0869C93.2849 13.5052 93.2098 12.9147 93.1521 12.3199C93.0738 11.5257 93.03 10.7622 93.0181 10.0376C93.0059 9.31148 93.0255 8.62401 93.0741 7.98257C93.1224 7.34015 93.1994 6.74402 93.3022 6.20186C93.405 5.65896 93.5339 5.17003 93.6847 4.74323C93.7598 4.52983 93.8406 4.33228 93.9258 4.15107C94.011 3.96985 94.1007 3.80498 94.1941 3.65693C94.2872 3.50864 94.3841 3.37744 94.4832 3.26356C94.5823 3.14968 94.6841 3.05288 94.7869 2.97391C94.8055 2.9598 94.8241 2.94618 94.8429 2.93306C94.8618 2.91994 94.8801 2.90732 94.8987 2.89568C94.9173 2.88355 94.9358 2.87216 94.9544 2.86127C94.973 2.85038 94.9913 2.83998 95.0102 2.83008C64.4239 19.1605 33.8425 35.4909 3.2587 51.82C3.24284 51.8284 3.22723 51.8373 3.21138 51.847C3.19552 51.8566 3.17992 51.8668 3.16431 51.8774C3.1487 51.8881 3.13309 51.8995 3.11748 51.9111C3.10212 51.923 3.08652 51.9354 3.07091 51.9482C2.98568 52.0205 2.90368 52.1121 2.82614 52.2221C2.7486 52.332 2.67526 52.4605 2.60713 52.607C2.53925 52.7536 2.47633 52.9182 2.41959 53.1009C2.36286 53.2833 2.31232 53.4834 2.26897 53.7012C2.18102 54.1359 2.12106 54.6387 2.09158 55.2017C2.06185 55.7637 2.06235 56.385 2.09455 57.0584C2.12676 57.7305 2.19093 58.4544 2.28854 59.2226C2.38615 59.989 2.51745 60.7993 2.68418 61.646C2.8083 62.28 2.94778 62.911 3.09989 63.5344C3.25201 64.1572 3.41676 64.7724 3.59241 65.3755C3.76781 65.9778 3.95362 66.568 4.14785 67.1416C4.34183 67.7144 4.54448 68.271 4.75283 68.8064C4.95995 69.3404 5.174 69.8531 5.39077 70.3386C5.60754 70.8243 5.82704 71.2828 6.0458 71.7098C6.26456 72.1364 6.48257 72.531 6.69563 72.8885C6.90894 73.246 7.11754 73.5661 7.31771 73.8438C7.45248 74.0305 7.58106 74.1978 7.70469 74.3466C7.82831 74.4959 7.94673 74.6269 8.06069 74.7417C8.17465 74.8566 8.28465 74.9549 8.39093 75.039C8.49721 75.1232 8.59978 75.1925 8.69987 75.2495L77.9984 114.057C78.1513 114.143 78.3014 114.26 78.4421 114.399C78.5826 114.538 78.7139 114.699 78.8286 114.87C78.9433 115.042 79.0414 115.225 79.1167 115.41C79.1918 115.594 79.2438 115.779 79.2656 115.956C79.2765 116.044 79.2795 116.127 79.275 116.202C79.2703 116.277 79.2584 116.345 79.2396 116.406C79.2208 116.466 79.195 116.519 79.1633 116.565C79.1316 116.61 79.0934 116.648 79.0501 116.677C109.242 96.4123 139.435 76.1461 169.625 55.8808C169.674 55.8473 169.719 55.8067 169.758 55.7594C169.797 55.7122 169.83 55.6579 169.857 55.5975C169.884 55.5371 169.904 55.4705 169.918 55.398C169.931 55.3257 169.937 55.2475 169.935 55.1641C169.931 54.9984 169.896 54.8276 169.836 54.661L169.835 54.6623Z" fill="#45025F"/>
<path d="M73.6188 97.7765C73.7471 98.7816 73.9143 99.784 74.1163 100.774C74.3179 101.763 74.5543 102.74 74.8213 103.696C75.0882 104.651 75.3857 105.585 75.71 106.49C76.034 107.393 76.3851 108.268 76.7594 109.103C76.8692 109.348 76.9809 109.589 77.0946 109.827C77.2083 110.064 77.3243 110.298 77.4422 110.529C77.5604 110.76 77.6803 110.988 77.8027 111.211C77.925 111.435 78.0494 111.655 78.1763 111.872L10.4211 74.2102C10.3203 74.1535 10.217 74.0839 10.11 73.9997C10.0029 73.9156 9.89269 73.817 9.77799 73.7019C9.66329 73.5868 9.54437 73.4556 9.42025 73.3061C9.29613 73.1565 9.16706 72.9892 9.03179 72.8018C8.83062 72.5235 8.62153 72.2024 8.40748 71.844C8.19343 71.4855 7.97517 71.0897 7.75591 70.6616C7.53666 70.2336 7.31691 69.7734 7.09989 69.2862C6.88287 68.7987 6.66907 68.2843 6.46171 67.7483C6.25336 67.2114 6.0512 66.6529 5.85746 66.0778C5.66348 65.5022 5.47817 64.9095 5.30351 64.305C5.1286 63.7 4.9646 63.0825 4.81323 62.4572C4.6621 61.8314 4.52362 61.1976 4.40074 60.5611C4.23549 59.711 4.10617 58.8973 4.01054 58.1276C3.91466 57.3564 3.85273 56.6293 3.82275 55.954C3.79253 55.2774 3.79451 54.6531 3.82672 54.0884C3.85867 53.5227 3.92086 53.0174 4.01153 52.5805C4.05613 52.3616 4.1079 52.1604 4.16588 51.9769C4.22385 51.7932 4.28801 51.6276 4.35713 51.4803C4.4265 51.3328 4.50107 51.2035 4.57961 51.0929C4.65839 50.9822 4.74138 50.8901 4.8276 50.8171C4.9153 50.7441 5.00448 50.6889 5.09516 50.651C5.18583 50.6131 5.27799 50.5918 5.37189 50.5864C5.46603 50.5809 5.56191 50.5913 5.65952 50.6161C5.75737 50.6408 5.85721 50.6802 5.95953 50.7329L75.0401 86.5773C74.8739 86.7771 74.7203 87.0022 74.5795 87.2505C74.4391 87.4985 74.311 87.7703 74.1948 88.0635C74.0788 88.3563 73.975 88.6707 73.8826 89.0054C73.7905 89.3396 73.71 89.6937 73.6403 90.066C73.5455 90.5812 73.4726 91.1327 73.4228 91.7172C73.373 92.3007 73.3463 92.9176 73.3433 93.5645C73.3403 94.2104 73.3611 94.8867 73.4067 95.5903C73.4523 96.2924 73.5224 97.0225 73.6183 97.777L73.6188 97.7765Z" fill="#52D8DA"/>
<path d="M73.6188 97.7765C73.7471 98.7816 73.9143 99.784 74.1163 100.774C74.3179 101.763 74.5543 102.74 74.8213 103.696C75.0882 104.651 75.3857 105.585 75.71 106.49C76.034 107.393 76.3851 108.268 76.7594 109.103C76.8692 109.348 76.9809 109.589 77.0946 109.827C77.2083 110.064 77.3243 110.298 77.4422 110.529C77.5604 110.76 77.6803 110.988 77.8027 111.211C77.925 111.435 78.0494 111.655 78.1763 111.872L10.4211 74.2102C10.3203 74.1535 10.217 74.0839 10.11 73.9997C10.0029 73.9156 9.89269 73.817 9.77799 73.7019C9.66329 73.5868 9.54437 73.4556 9.42025 73.3061C9.29613 73.1565 9.16706 72.9892 9.03179 72.8018C8.83062 72.5235 8.62153 72.2024 8.40748 71.844C8.19343 71.4855 7.97517 71.0897 7.75591 70.6616C7.53666 70.2336 7.31691 69.7734 7.09989 69.2862C6.88287 68.7987 6.66907 68.2843 6.46171 67.7483C6.25336 67.2114 6.0512 66.6529 5.85746 66.0778C5.66348 65.5022 5.47817 64.9095 5.30351 64.305C5.1286 63.7 4.9646 63.0825 4.81323 62.4572C4.6621 61.8314 4.52362 61.1976 4.40074 60.5611C4.23549 59.711 4.10617 58.8973 4.01054 58.1276C3.91466 57.3564 3.85273 56.6293 3.82275 55.954C3.79253 55.2774 3.79451 54.6531 3.82672 54.0884C3.85867 53.5227 3.92086 53.0174 4.01153 52.5805C4.05613 52.3616 4.1079 52.1604 4.16588 51.9769C4.22385 51.7932 4.28801 51.6276 4.35713 51.4803C4.4265 51.3328 4.50107 51.2035 4.57961 51.0929C4.65839 50.9822 4.74138 50.8901 4.8276 50.8171C4.9153 50.7441 5.00448 50.6889 5.09516 50.651C5.18583 50.6131 5.27799 50.5918 5.37189 50.5864C5.46603 50.5809 5.56191 50.5913 5.65952 50.6161C5.75737 50.6408 5.85721 50.6802 5.95953 50.7329L75.0401 86.5773C74.8739 86.7771 74.7203 87.0022 74.5795 87.2505C74.4391 87.4985 74.311 87.7703 74.1948 88.0635C74.0788 88.3563 73.975 88.6707 73.8826 89.0054C73.7905 89.3396 73.71 89.6937 73.6403 90.066C73.5455 90.5812 73.4726 91.1327 73.4228 91.7172C73.373 92.3007 73.3463 92.9176 73.3433 93.5645C73.3403 94.2104 73.3611 94.8867 73.4067 95.5903C73.4523 96.2924 73.5224 97.0225 73.6183 97.777L73.6188 97.7765Z" fill="white"/>
<path d="M93.7954 3.75852C93.7082 3.72609 93.6222 3.70183 93.5362 3.68698C93.4503 3.67212 93.3651 3.66618 93.2798 3.67014C93.1944 3.6741 93.1094 3.68772 93.0242 3.71198C92.9392 3.73624 92.8537 3.77065 92.7685 3.81645C63.5175 19.4403 34.269 35.0637 5.01807 50.6873C5.09189 50.6479 5.16671 50.6202 5.24252 50.6036C5.31858 50.5867 5.39563 50.5811 5.47391 50.5858C5.5522 50.5905 5.63197 50.6053 5.71298 50.6298C5.794 50.6546 5.87649 50.6887 5.96048 50.7321L75.041 86.5765L164.318 30.3998L93.7951 3.75976L93.7954 3.75852Z" fill="#52D8DA"/>
<path d="M164.648 53.5801C164.541 53.3803 164.437 53.1771 164.336 52.9701C164.234 52.7632 164.135 52.5525 164.04 52.3386C163.943 52.1247 163.85 51.9071 163.759 51.6863C163.449 50.9309 163.167 50.136 162.918 49.3097C162.668 48.4828 162.45 47.6243 162.267 46.7429C162.084 45.8604 161.936 44.9543 161.827 44.0334C161.717 43.111 161.645 42.1732 161.615 41.2285C161.593 40.5195 161.596 39.831 161.623 39.1663C161.649 38.5006 161.699 37.8582 161.771 37.242C161.843 36.6249 161.937 36.0342 162.052 35.4725C162.167 34.9098 162.303 34.3765 162.459 33.875C162.572 33.5125 162.696 33.1664 162.83 32.8379C162.963 32.5089 163.107 32.198 163.261 31.9061C163.416 31.614 163.581 31.3412 163.757 31.0894C163.933 30.8371 164.12 30.6062 164.318 30.3975L75.0413 86.5741C74.8751 86.7739 74.7215 86.9989 74.5807 87.2472C74.4403 87.4953 74.3122 87.7671 74.196 88.0602C74.0801 88.3531 73.9763 88.6675 73.8838 89.0022C73.7917 89.3364 73.7112 89.6904 73.6416 90.0627C73.5467 90.5779 73.4738 91.1295 73.424 91.714C73.3742 92.2975 73.3475 92.9144 73.3445 93.5613C73.3415 94.2072 73.3624 94.8835 73.4079 95.5871C73.4535 96.2896 73.5236 97.0195 73.6195 97.774C73.7478 98.7791 73.9151 99.7815 74.117 100.772C74.3186 101.761 74.555 102.737 74.822 103.694C75.0889 104.648 75.3864 105.583 75.7107 106.487C76.0347 107.391 76.3858 108.265 76.7601 109.101C76.8699 109.345 76.9816 109.586 77.0953 109.824C77.2091 110.062 77.325 110.296 77.4429 110.527C77.5611 110.758 77.681 110.985 77.8034 111.209C77.9258 111.433 78.0501 111.653 78.177 111.869L164.976 54.1676C164.864 53.9755 164.755 53.7794 164.648 53.5799L164.648 53.5801Z" fill="#FDF5FF"/>
<path d="M169.22 28.5026C169.159 28.3295 169.072 28.1617 168.966 28.0084C168.859 27.8552 168.733 27.7165 168.595 27.6014C168.457 27.4863 168.305 27.395 168.147 27.3363L95.8015 0.431315C95.6118 0.36076 95.4269 0.311743 95.2478 0.282283C95.0685 0.253071 94.8948 0.243416 94.7271 0.252081C94.5594 0.260746 94.3978 0.28773 94.2427 0.331053C94.0879 0.374376 93.9393 0.434286 93.798 0.509297C63.1548 16.7506 32.509 32.9918 1.86572 49.2319C1.98662 49.1677 2.11619 49.1202 2.25344 49.0907C2.39069 49.0613 2.53636 49.0504 2.68971 49.0593C2.84307 49.068 3.00435 49.0967 3.17281 49.1469C3.34153 49.1972 3.51742 49.2692 3.7005 49.3641L74.4954 86.117C74.652 86.1985 74.8061 86.3138 74.9505 86.453C75.095 86.5921 75.2297 86.7552 75.3479 86.9315C75.4661 87.1078 75.5674 87.2971 75.645 87.4895C75.7225 87.6816 75.7765 87.8764 75.7998 88.0636C75.8122 88.1639 75.8152 88.2567 75.8097 88.3416C75.804 88.4265 75.7899 88.5033 75.7678 88.5718C75.7458 88.6404 75.7161 88.7001 75.6791 88.7508C75.6425 88.8013 75.5984 88.8427 75.5483 88.8744C106.687 69.1912 137.826 49.5096 168.965 29.8285C169.021 29.7926 169.073 29.748 169.118 29.6958C169.163 29.6436 169.201 29.5832 169.232 29.5156C169.263 29.448 169.287 29.3735 169.302 29.2923C169.317 29.2111 169.324 29.1234 169.322 29.0299C169.318 28.8551 169.282 28.6766 169.221 28.5033L169.22 28.5026Z" fill="#45025F"/>
<path d="M3.701 49.3637L74.4959 86.1166C74.6525 86.1981 74.8066 86.3134 74.951 86.4526C75.0955 86.5917 75.2302 86.7548 75.3484 86.9311C75.4666 87.1074 75.5679 87.2967 75.6455 87.4891C75.723 87.6812 75.777 87.876 75.8003 88.0632C75.8236 88.2506 75.8139 88.412 75.7765 88.544C75.7391 88.6759 75.6742 88.7782 75.5867 88.847C75.4993 88.9155 75.3895 88.9507 75.2625 88.948C75.1354 88.9455 74.9912 88.9054 74.8348 88.8235L4.19104 51.8675C4.08971 51.8148 3.99036 51.7754 3.8935 51.7504C3.79663 51.7254 3.7015 51.7147 3.60834 51.72C3.51544 51.7251 3.42402 51.7459 3.33459 51.7836C3.24491 51.8212 3.15696 51.8757 3.07025 51.9482C2.98502 52.0205 2.90302 52.1121 2.82548 52.222C2.74793 52.3319 2.6746 52.4604 2.60647 52.607C2.53859 52.7535 2.47567 52.9181 2.41893 53.1008C2.3622 53.2833 2.31166 53.4833 2.26831 53.7012C2.18036 54.1359 2.1204 54.6387 2.09092 55.2017C2.06119 55.7636 2.06169 56.385 2.09389 57.0584C2.1261 57.7305 2.19027 58.4544 2.28788 59.2225C2.38549 59.989 2.51679 60.7993 2.68352 61.6459C2.80764 62.2799 2.94712 62.911 3.09923 63.5343C3.25135 64.1572 3.4161 64.7724 3.59175 65.3754C3.76715 65.9778 3.95296 66.5679 4.14719 67.1415C4.34117 67.7144 4.54382 68.2709 4.75217 68.8064C4.95929 69.3404 5.17333 69.8531 5.39011 70.3385C5.60688 70.8243 5.82638 71.2827 6.04514 71.7098C6.2639 72.1363 6.48191 72.5309 6.69497 72.8884C6.90828 73.2459 7.11688 73.566 7.31705 73.8438C7.45182 74.0304 7.5804 74.1978 7.70403 74.3466C7.82765 74.4959 7.94607 74.6268 8.06003 74.7417C8.17399 74.8566 8.28399 74.9548 8.39027 75.039C8.49655 75.1232 8.59912 75.1925 8.69921 75.2494L77.9978 114.057C78.1506 114.143 78.3008 114.26 78.4415 114.399C78.582 114.538 78.7133 114.699 78.828 114.87C78.9427 115.042 79.0408 115.225 79.1161 115.41C79.1912 115.594 79.2432 115.779 79.265 115.956C79.2868 116.132 79.2766 116.282 79.2395 116.403C79.2023 116.524 79.1384 116.616 79.0527 116.675C78.9669 116.734 78.8592 116.76 78.7351 116.749C78.6109 116.739 78.47 116.693 78.3174 116.607L9.15753 77.6183C8.93531 77.4931 8.7116 77.3393 8.48838 77.1616C8.26541 76.9836 8.04269 76.7816 7.8222 76.5595C7.60196 76.3375 7.38395 76.0953 7.1699 75.8371C6.95609 75.5792 6.74626 75.3051 6.54236 75.0189C6.33649 74.7315 6.13483 74.431 5.93713 74.1186C5.73943 73.8061 5.54545 73.4818 5.35543 73.1464C5.16516 72.8112 4.97886 72.4649 4.79627 72.1089C4.61369 71.7526 4.43457 71.3862 4.25917 71.0112C3.90935 70.2608 3.57292 69.4726 3.25383 68.6551C2.93449 67.8367 2.63224 66.989 2.35081 66.1196C2.06912 65.2492 1.8085 64.3572 1.57215 63.4519C1.33556 62.5451 1.12324 61.6244 0.939664 60.699C0.802414 60.0041 0.686223 59.3307 0.590347 58.6809C0.49447 58.03 0.419157 57.4027 0.36391 56.8021C0.308663 56.2006 0.273732 55.6255 0.258372 55.0796C0.243012 54.533 0.247719 54.0153 0.27175 53.5301C0.297267 53.0451 0.341118 52.5909 0.405035 52.1715C0.468953 51.7516 0.552938 51.3667 0.65798 51.0208C0.763271 50.6745 0.88962 50.3675 1.03876 50.1039C1.18815 49.84 1.36008 49.6194 1.55605 49.4466C1.68562 49.332 1.82807 49.2404 1.98316 49.1743C2.13824 49.1082 2.30596 49.0683 2.48558 49.0569C2.66544 49.0458 2.85694 49.0634 3.05985 49.1131C3.26275 49.1634 3.47704 49.2451 3.70224 49.3619L3.701 49.3637Z" fill="#9219C2"/>
</g>
<defs>
<clipPath id="clip0_407_26">
<rect width="170.182" height="117" fill="white"/>
</clipPath>
</defs>
</svg>
