<svg width="345" height="176" viewBox="0 0 345 176" fill="none" xmlns="http://www.w3.org/2000/svg">
<rect x="198.539" y="91.5342" width="101.461" height="84.4659" rx="22" fill="#F1CFFC"/>
<path fill-rule="evenodd" clip-rule="evenodd" d="M154.694 25.8873C153.773 25.9396 152.786 25.6997 151.804 25.42C151.127 25.2287 150.525 24.8859 149.938 24.5016C149.268 24.0595 148.584 23.6373 147.913 23.2006C147.103 22.672 146.392 22.0441 145.758 21.2989C145.13 20.5591 144.56 19.7923 144.105 18.9406C143.656 18.098 143.652 17.194 143.901 16.3045C143.99 15.9905 144.105 15.6928 144.046 15.3716C143.966 14.9386 143.991 14.5092 144.116 14.1014C144.192 13.8578 144.374 13.6467 144.52 13.4266C144.582 13.3345 144.905 13.3851 144.946 13.4789C144.989 13.5745 145.06 13.6629 145.08 13.7622C145.376 15.2255 146.011 16.4831 147.211 17.4214C147.419 17.5819 147.567 17.8183 147.743 18.0186C148.169 18.5004 148.586 18.9911 149.021 19.4621C149.312 19.7742 149.613 20.0828 149.942 20.3588C150.983 21.2321 152.162 21.6381 153.52 21.2862C154.131 21.1275 154.787 21.0806 155.289 20.6132C155.396 20.5158 155.578 20.4887 155.73 20.4563C156.931 20.1982 158.148 20.0016 159.332 19.6786C160.826 19.2708 162.265 18.6952 163.643 17.9825C163.927 17.8346 164.199 17.6523 164.441 17.4448C165.17 16.8169 165.894 16.18 166.596 15.5232C166.825 15.3085 167.006 15.0306 167.175 14.7618C167.291 14.5795 167.374 14.3792 167.592 14.3053C167.955 14.1808 168.332 14.1176 168.691 14.2764C169.081 14.446 169.451 14.6625 169.825 14.8682C169.998 14.9639 170.11 15.2453 170.07 15.4258C169.724 17.0028 169.437 17.8237 168.592 19.4801C168.426 19.8067 168.202 20.1297 167.933 20.3751C166.737 21.4631 165.417 22.3743 163.9 22.9607C162.452 23.5182 161.016 24.1028 159.604 24.7488C158.778 25.1259 157.911 25.4055 157.029 25.6383C156.296 25.8241 155.56 25.9017 154.694 25.8873Z" fill="#19766D"/>
<path fill-rule="evenodd" clip-rule="evenodd" d="M202.099 29.0491C201.572 29.1069 201.051 29.0239 200.547 28.8091C200.105 28.6215 199.639 28.4826 199.212 28.2678C198.017 27.6688 196.835 27.0481 195.653 26.4238C194.362 25.7418 193.232 24.854 192.276 23.7498C191.785 23.1832 191.238 22.6744 190.695 22.1584C190.154 21.6459 189.636 21.1028 189.145 20.5399C188.721 20.0527 188.421 19.4789 188.222 18.8618C188.123 18.5515 188.071 18.1924 188.331 17.9543C188.683 17.6331 188.621 17.164 188.829 16.7923C188.979 16.5234 189.009 16.1824 189.074 15.8703C189.128 15.6104 189.136 15.3398 189.197 15.0818C189.251 14.8598 189.441 14.7281 189.643 14.6577C189.789 14.6054 189.959 14.6 190.117 14.609C190.397 14.6235 190.681 14.7227 190.764 15.0006C191.002 15.7873 191.466 16.4314 191.942 17.081C192.289 17.5555 192.581 18.0697 192.902 18.5623C193.666 19.7279 194.463 20.8665 195.593 21.7217C195.678 21.7867 195.754 21.8643 195.824 21.9455C196.999 23.2951 198.517 24.2189 199.948 25.251C200.385 25.5668 200.834 25.6083 201.305 25.3845C201.74 25.1788 202.188 24.9858 202.585 24.7205C203.429 24.1576 204.247 23.5549 205.072 22.9613C205.2 22.8693 205.339 22.7682 205.424 22.6383C205.837 21.9996 206.454 21.5738 207.023 21.0938C207.062 21.0595 207.115 21.0397 207.154 21.0036C207.625 20.5778 207.833 19.9192 208.456 19.6124C208.999 19.3436 209.248 18.7518 209.672 18.3512C210.074 17.9723 210.271 17.4707 210.573 17.0341C210.751 16.776 211.105 16.6587 211.426 16.7237C212.018 16.8428 212.487 17.2109 213.004 17.4869C213.207 17.5952 213.269 17.8262 213.272 18.0391C213.278 18.7969 213.137 19.5294 212.839 20.2259C212.523 20.9657 212.159 21.6784 211.659 22.3153C210.901 23.2825 210.143 24.2406 209.156 25.0056C208.355 25.6263 207.631 26.3516 206.855 27.0066C206.405 27.3855 205.938 27.7464 205.451 28.0712C204.445 28.7388 203.335 29.0888 202.099 29.0491Z" fill="#19766D"/>
<path d="M171.567 158.528C171.54 158.212 171.577 157.883 171.641 157.571C171.834 156.615 171.881 155.657 171.666 154.702C171.567 154.269 171.662 153.847 171.7 153.425C171.763 152.734 171.801 152.048 171.763 151.352C171.729 150.717 171.657 150.067 171.861 149.436C171.906 149.293 171.881 149.114 171.845 148.965C171.707 148.409 171.819 147.893 172.106 147.422C172.279 147.133 172.368 146.843 172.348 146.512C172.346 146.46 172.353 146.406 172.352 146.352C172.337 144.851 172.489 143.36 172.677 141.875C172.776 141.081 172.787 140.282 172.859 139.488C172.9 139.035 172.888 138.651 172.538 138.319C172.373 138.164 172.375 137.936 172.381 137.718C172.402 136.756 172.393 135.793 172.447 134.831C172.485 134.187 172.51 133.552 172.446 132.908C172.348 131.942 172.46 130.981 172.592 130.026C172.74 128.953 172.741 127.899 172.516 126.831C172.337 125.995 172.2 125.146 172.281 124.278C172.31 123.962 172.279 123.635 172.229 123.32C171.994 121.833 172.108 120.328 171.991 118.836C171.965 118.507 171.94 118.195 171.762 117.919C171.518 117.54 171.48 117.136 171.487 116.692C171.5 115.998 171.447 115.301 171.39 114.61C171.364 114.292 171.262 113.989 171.02 113.742C170.666 113.376 170.601 112.881 170.523 112.409C170.473 112.095 170.486 111.768 170.491 111.445C170.498 110.693 170.48 109.948 170.251 109.219C170.172 108.966 170.125 108.69 170.128 108.427C170.155 106.763 169.728 105.128 169.796 103.463C169.807 103.198 169.785 102.927 169.751 102.662C169.724 102.454 169.704 102.212 169.589 102.055C169.175 101.483 168.935 100.829 168.632 100.206C168.323 99.5709 167.89 99.026 167.421 98.5117C166.369 97.3678 165.324 96.213 163.857 95.5689C163.711 95.5057 163.566 95.4227 163.443 95.3217C162.393 94.4574 161.15 93.9468 159.919 93.4217C158.682 92.893 157.554 92.1659 156.38 91.5272C155.961 91.2998 155.564 90.9967 155.226 90.6593C154.69 90.127 154.102 89.6633 153.485 89.2429C152.461 88.5482 151.545 87.7272 150.61 86.9261C150.287 86.65 149.978 86.3415 149.729 85.9987C149.289 85.3906 148.668 84.9395 148.293 84.2701C148.172 84.0518 147.883 83.9327 147.686 83.7541C146.722 82.8844 145.899 81.9137 145.401 80.6921C145.284 80.4016 145.104 80.1238 144.901 79.882C144.169 79.0105 143.622 78.0361 143.241 76.968C143.041 76.4086 142.739 75.9142 142.42 75.4144C141.989 74.7396 141.622 74.0215 141.272 73.2998C140.877 72.4842 140.572 71.6253 140.139 70.8242C140.088 70.7304 140.014 70.6347 140.005 70.5337C139.92 69.554 139.437 68.6987 139.146 67.7857C138.933 67.1109 138.787 66.4397 138.846 65.736C138.922 64.8266 138.65 63.928 138.792 63.0132C138.83 62.7678 138.688 62.4918 138.621 62.2338C138.363 61.245 138.213 60.24 138.134 59.2223C138.096 58.7424 138.088 58.2732 138.179 57.7861C138.347 56.8803 138.253 55.9745 137.93 55.0976C137.726 54.5455 137.511 53.9934 137.358 53.4268C137.175 52.7574 136.773 52.1728 136.695 51.4583C136.616 50.7185 136.428 49.9895 136.3 49.2534C136.181 48.5677 136.08 47.8785 135.97 47.1928C135.901 46.7706 135.845 46.3448 135.749 45.9298C135.522 44.9266 135.472 43.9161 135.578 42.8985C135.612 42.5809 135.645 42.2471 135.771 41.962C135.971 41.5092 135.973 41.022 136.103 40.5601C136.221 40.1379 136.211 39.7211 136.159 39.2862C135.953 37.6352 135.82 35.9789 136.125 34.3243C136.215 33.8353 136.156 33.3554 136.013 32.8953C135.688 31.8433 135.677 30.7914 135.897 29.7196C136.038 29.0304 135.98 28.3465 135.798 27.6519C135.527 26.618 135.333 25.566 135.325 24.4871C135.322 23.8267 135.067 23.2348 134.751 22.6701C134.71 22.5943 134.596 22.5582 134.468 22.468C134.347 22.7747 134.188 23.0598 134.122 23.3648C133.896 24.4113 133.687 25.4632 133.501 26.5187C133.425 26.9392 133.42 27.3722 133.389 27.798C133.337 28.545 133.392 29.301 133.151 30.0282C133.116 30.1292 133.113 30.2393 133.107 30.3457C133.032 32.3269 132.932 34.3063 132.889 36.2874C132.856 37.7886 132.842 39.288 132.665 40.782C132.589 41.4208 132.586 42.0595 132.616 42.7072C132.671 43.8837 132.638 45.0655 132.674 46.2419C132.698 47.0376 132.412 47.6926 131.893 48.2682C131.857 48.3079 131.815 48.344 131.784 48.3873C131.409 48.9466 130.902 49.3039 130.232 49.4266C130.075 49.4555 129.911 49.5421 129.767 49.515C129.633 49.4915 129.465 49.3779 129.411 49.2588C129.328 49.0729 129.294 48.8492 129.296 48.6435C129.317 46.7652 129.099 44.9085 128.873 43.0483C128.835 42.7307 128.798 42.4077 128.805 42.0884C128.83 41.1266 128.935 40.1685 128.843 39.1996C128.803 38.7846 128.895 38.3389 129.003 37.9294C129.223 37.103 129.072 36.2098 129.467 35.4141C129.532 35.2842 129.474 35.0966 129.483 34.936C129.554 33.8678 129.621 32.8032 129.801 31.7405C129.953 30.8491 129.944 29.9271 129.965 29.0159C129.992 27.8413 129.879 26.6523 130.009 25.4903C130.171 24.0558 130.211 22.6069 130.481 21.1797C130.711 19.9744 130.851 18.7493 130.745 17.5079C130.664 16.548 130.633 15.5845 130.57 14.6228C130.541 14.1861 130.416 13.7819 130.086 13.4553C130.039 13.5239 129.956 13.5871 129.953 13.6556C129.915 14.4658 129.678 15.2272 129.409 15.985C129.216 16.5317 128.911 17.0261 128.884 17.6504C128.863 18.1701 128.61 18.6753 128.632 19.2238C128.641 19.4313 128.572 19.646 128.512 19.8499C128.211 20.882 128.043 21.9339 127.899 22.9985C127.807 23.6805 127.711 24.3734 127.545 25.0428C127.24 26.2896 126.87 27.522 126.52 28.7579C126.446 29.0159 126.305 29.2541 126.249 29.5139C125.766 31.7116 125.251 33.9021 124.84 36.1142C124.607 37.3718 124.376 38.6475 124.448 39.943C124.473 40.3923 124.331 40.7784 124.075 41.1411C123.575 41.8484 122.986 42.46 122.232 42.8931C122.053 42.9959 121.828 43.0302 121.618 43.0555C121.535 43.0645 121.384 42.9851 121.358 42.9129C121.196 42.46 121.068 42.0035 121.144 41.5037C121.313 40.3905 121.414 39.2664 121.625 38.1621C121.865 36.8973 122.069 35.6324 122.19 34.3514C122.342 32.7473 122.685 31.1793 123.113 29.6294C123.383 28.6497 123.594 27.6591 123.789 26.6595C124.065 25.2377 124.181 23.8014 124.394 22.3742C124.546 21.3601 124.903 20.4075 125.249 19.4512C125.378 19.0993 125.518 18.7493 125.69 18.4155C126.136 17.544 126.439 16.6472 126.386 15.6476C126.37 15.3337 126.46 15.0107 126.525 14.6967C126.706 13.809 126.996 12.9483 127.049 12.0263C127.07 11.6185 127.321 11.2234 127.466 10.821C127.639 10.3375 127.641 10.2581 127.513 9.38477C127.368 9.46416 127.18 9.50566 127.11 9.61933C126.885 9.9802 126.644 10.3519 126.52 10.7525C126.376 11.218 126.19 11.6492 125.942 12.0624C125.637 12.5694 125.424 13.1125 125.278 13.6935C125.011 14.7617 124.493 15.7126 123.567 16.3369C122.392 17.1272 121.795 18.3018 121.223 19.5197C120.81 20.4002 120.566 21.3331 120.319 22.2641C119.413 25.6833 118.35 29.0502 117.025 32.3341C116.605 33.377 116.195 34.4253 115.812 35.4827C115.428 36.5436 115.136 37.6298 115.096 38.7684C115.092 38.8748 115.094 38.9849 115.072 39.0895C114.744 40.6756 114.771 42.2832 114.769 43.8927C114.769 44.6397 114.654 45.3867 114.583 46.1319C114.524 46.7724 114.439 47.4093 114.39 48.0499C114.307 49.1199 114.226 50.188 114.179 51.258C114.152 51.8985 114.121 52.5517 114.221 53.1796C114.388 54.2442 114.432 55.3123 114.453 56.3823C114.471 57.2989 114.567 58.1975 114.807 59.0852C115.143 60.3284 115.404 61.586 115.516 62.8725C115.549 63.246 115.61 63.6195 115.691 63.984C116.058 65.6638 116.204 67.3725 116.383 69.0776C116.473 69.9347 116.628 70.7719 116.951 71.5766C117.211 72.2226 117.397 72.9028 117.695 73.5289C118.321 74.8389 118.769 76.2138 119.261 77.5724C119.628 78.5828 120.043 79.5626 120.609 80.4792C121.34 81.6647 122.039 82.8718 122.753 84.0662C122.891 84.2954 123.019 84.539 123.196 84.7338C124.423 86.0799 125.54 87.5179 126.886 88.7629C128.42 90.1829 129.846 91.7112 131.142 93.3604C132.302 94.8363 133.593 96.1968 134.946 97.4995C135.37 97.9073 135.8 98.3169 136.17 98.7716C137.32 100.184 138.543 101.538 139.563 103.053C139.801 103.409 140.059 103.757 140.339 104.078C141.741 105.688 142.606 107.571 143.198 109.598C143.257 109.798 143.273 110.014 143.275 110.225C143.29 111.084 143.358 111.936 143.553 112.775C143.723 113.513 143.75 114.256 143.725 115.012C143.694 115.868 143.755 116.727 143.725 117.582C143.647 119.884 143.42 122.177 143.181 124.469C143.028 125.961 142.911 127.457 142.761 128.949C142.663 129.909 142.544 130.865 142.425 131.823C142.239 133.312 142.019 134.797 141.864 136.289C141.693 137.94 141.588 139.596 141.44 141.251C141.292 142.904 141.128 144.557 140.969 146.209C140.953 146.368 140.927 146.529 140.922 146.689C140.853 148.833 140.539 150.953 140.279 153.08C140.11 154.461 140.05 155.855 139.904 157.239C139.821 158.031 139.702 158.82 139.59 159.61H171.7C171.653 159.249 171.597 158.89 171.567 158.528ZM171.911 142.532C172.095 142.832 171.913 143.129 171.904 143.427C171.781 142.953 171.781 142.953 171.911 142.532Z" fill="#19766D"/>
<path d="M178.242 137.251L178.266 137.277L178.242 137.251Z" fill="#19766D"/>
<path d="M214.55 159.349C214.734 158.223 214.566 157.1 214.554 155.978C214.543 155.117 214.397 154.313 213.88 153.555C213.399 152.847 213.214 151.992 213.227 151.108C213.233 150.686 213.135 150.262 213.079 149.838C213.059 149.681 212.971 149.502 213.018 149.371C213.231 148.761 213.02 148.178 212.819 147.651C212.642 147.189 212.55 146.733 212.484 146.26C212.357 145.358 212.229 144.457 212.114 143.555C211.939 142.175 211.782 140.791 211.601 139.411C211.484 138.508 211.352 137.606 211.199 136.708C210.973 135.391 210.722 134.077 210.486 132.762C210.448 132.551 210.397 132.338 210.401 132.125C210.424 130.515 210.081 128.926 210.154 127.313C210.164 127.047 210.139 126.773 210.083 126.513C209.757 124.989 209.677 123.442 209.654 121.891C209.652 121.784 209.656 121.672 209.627 121.571C209.258 120.314 209.453 119.014 209.347 117.737C209.332 117.578 209.314 117.41 209.347 117.257C209.605 116.044 209.444 114.801 209.639 113.58C209.807 112.528 209.659 111.44 209.861 110.379C209.91 110.124 209.849 109.845 209.805 109.581C209.695 108.939 209.758 108.302 209.818 107.663C209.91 106.666 210.33 105.81 210.993 105.074C211.994 103.964 213.016 102.869 214.025 101.767C214.889 100.821 215.752 99.8722 216.508 98.8311C217.326 97.7034 218.28 96.6821 219.325 95.7673C220.383 94.8417 221.247 93.7555 222.108 92.6657C222.874 91.6967 223.635 90.7495 224.698 90.0728C225.144 89.7896 225.552 89.4341 225.878 88.992C226.389 88.301 227.014 87.711 227.649 87.1354C228.286 86.5598 228.939 86.0041 229.365 85.239C229.418 85.147 229.481 85.0514 229.564 84.9882C230.257 84.4596 230.749 83.7631 231.224 83.0468C231.406 82.7725 231.673 82.6047 231.988 82.4892C232.368 82.3503 232.572 82.0454 232.639 81.6448C232.673 81.4355 232.695 81.2172 232.778 81.0259C233.166 80.1292 233.345 79.1837 233.458 78.2238C233.561 77.3613 233.805 76.5475 234.209 75.7807C234.635 74.9706 234.909 74.1171 235.158 73.2348C235.48 72.0944 235.758 70.9631 235.841 69.7795C235.87 69.3573 236.021 68.9423 236.104 68.5219C236.438 66.842 236.757 65.1622 237.099 63.4842C237.196 63.0132 237.308 62.5369 237.49 62.093C238.032 60.7831 238.136 59.3937 238.32 58.0152C238.403 57.3783 238.492 56.7395 238.535 56.099C238.606 55.085 238.717 54.0655 238.669 53.0533C238.598 51.6026 238.829 50.17 238.82 48.7265C238.82 48.5695 238.837 48.3909 238.909 48.2556C239.356 47.4256 239.309 46.4909 239.479 45.605C239.638 44.7642 239.696 43.9035 239.779 43.0501C239.86 42.1966 239.923 41.345 239.779 40.4879C239.717 40.1198 239.726 39.7409 239.71 39.3656C239.701 39.1509 239.759 38.9199 239.696 38.7269C239.333 37.6389 239.526 36.4895 239.306 35.387C239.264 35.1795 239.284 34.9594 239.281 34.7447C239.264 33.2994 239.25 31.8542 239.235 30.4107C239.232 30.0354 239.284 29.6474 239.208 29.2866C238.995 28.2888 239.14 27.2567 238.882 26.2661C238.873 26.2282 238.819 26.203 238.786 26.1723C238.739 26.2607 238.654 26.3509 238.647 26.4448C238.51 28.37 238.371 30.2934 238.255 32.2204C238.172 33.6116 238.095 35.0027 238.061 36.3939C238.008 38.431 237.77 40.4536 237.642 42.4835C237.557 43.8187 237.348 45.1449 237.234 46.4783C237.129 47.707 237.053 48.9376 237.021 50.17C237.007 50.6968 237.133 51.2291 237.2 51.7596C237.245 52.1313 237.321 52.4976 237.342 52.8692C237.38 53.4954 237.016 53.8508 236.355 53.8274C235.763 53.8039 235.173 53.6938 234.651 53.4196C234.222 53.194 233.785 53.01 233.327 52.8602C233.036 52.7664 232.913 52.5481 232.995 52.2323C233.202 51.4438 233.231 50.6427 233.22 49.838C233.197 48.1708 233.312 46.5252 233.738 44.8995C233.928 44.176 233.897 43.4091 233.78 42.6621C233.59 41.4442 233.457 40.2245 233.489 38.9849C233.504 38.458 233.448 37.9239 233.31 37.3953C233.179 36.8828 233.144 36.3361 233.135 35.8038C233.125 35.0496 233.018 34.3243 232.803 33.5953C232.563 32.7762 232.345 31.9335 232.284 31.0873C232.181 29.6474 231.923 28.2184 231.966 26.7677C231.991 25.9053 231.789 25.068 231.675 24.22C231.45 22.5131 230.98 20.8657 230.524 19.222C230.167 17.9301 229.863 16.6364 229.645 15.3156C229.603 15.063 229.45 14.8284 229.336 14.5921C229.318 14.5542 229.246 14.5289 229.196 14.5235C229.159 14.5217 229.109 14.556 229.084 14.5885C228.885 14.8501 228.771 15.1442 228.744 15.4744C228.663 16.4884 228.571 17.5043 228.492 18.5201C228.475 18.733 228.474 18.9495 228.494 19.1606C228.602 20.2811 228.746 21.398 228.829 22.5185C228.975 24.5033 229.396 26.4429 229.807 28.379C230.244 30.4287 230.504 32.4983 230.717 34.5769C230.787 35.2662 230.851 35.9572 230.865 36.6555C230.879 37.3447 231.008 38.0376 230.952 38.7341C231.197 39.5749 230.977 40.4446 231.087 41.2818C231.208 42.1948 231.163 43.0988 231.183 44.0064C231.201 44.8634 231.174 45.7223 231.219 46.5775C231.309 48.2898 231.215 50.0022 231.269 51.7145C231.296 52.5715 231.307 53.4268 231.502 54.2694C231.563 54.5328 231.332 54.7728 231.036 54.7981C230.984 54.8035 230.93 54.8125 230.878 54.8143C230.556 54.8269 230.235 54.8468 229.914 54.845C229.755 54.845 229.585 54.836 229.441 54.78C228.898 54.578 228.36 54.3542 227.768 54.116C227.616 52.6527 227.331 51.1822 227.306 49.681C227.302 49.4139 227.34 49.1361 227.279 48.8817C227.062 47.9831 227.115 47.0755 227.102 46.1643C227.084 44.8255 226.992 43.4867 226.947 42.1479C226.875 40.0603 226.828 37.9708 226.747 35.8832C226.712 35.028 226.6 34.1763 226.55 33.3211C226.514 32.7365 226.396 32.1501 226.6 31.5673C226.649 31.4265 226.622 31.2533 226.6 31.0963C226.53 30.5659 226.438 30.039 226.375 29.5085C226.324 29.0809 226.084 28.7561 225.86 28.1192C225.799 28.5793 225.754 28.7363 225.761 28.8914C225.804 29.8549 225.821 30.8221 225.92 31.7802C226.081 33.3283 226.146 34.8746 226.118 36.4318C226.088 38.3065 226.14 40.183 226.118 42.0577C226.104 43.29 226.079 44.526 225.954 45.7475C225.857 46.7111 225.786 47.6692 225.785 48.6345C225.783 50.1898 225.767 51.7433 225.492 53.2824C225.416 53.6992 225.434 54.1359 225.424 54.5635C225.406 55.26 225.404 55.9565 225.386 56.6529C225.377 57.0156 225.14 57.2935 224.824 57.3296C224.133 57.409 223.444 57.5389 222.753 57.5461C222.117 57.5515 221.475 57.4667 220.874 57.2069C220.304 56.9579 220.147 56.6674 220.369 56.0846C220.791 54.9767 221.007 53.8237 221.172 52.6599C221.269 51.9671 221.289 51.2796 221.134 50.585C220.921 49.6377 221.007 48.6651 220.979 47.7016C220.95 46.7327 220.879 45.7764 220.61 44.8418C220.589 44.7624 220.502 44.701 220.446 44.6307C220.199 44.8778 220.125 45.1972 220.094 45.5112C219.912 47.3769 219.643 49.2317 219.549 51.1082C219.495 52.2305 219.444 53.3564 219.325 54.4733C219.206 55.5902 219.038 56.7017 218.831 57.8059C218.513 59.493 218.293 61.1872 218.19 62.8996C218.118 64.0742 218.01 65.2434 217.788 66.4072C217.618 67.2949 217.613 68.2133 217.434 69.1101C217.021 71.176 216.286 73.1247 215.386 75.0157C214.851 76.138 214.122 77.1267 213.224 77.9838C212.758 78.4277 212.339 78.886 212 79.4489C211.554 80.1905 210.807 80.6705 210.132 81.1901C208.479 82.4676 206.791 83.6981 205.12 84.9485C204.992 85.046 204.862 85.1452 204.759 85.2661C203.976 86.1773 202.929 86.7258 201.931 87.3411C201.386 87.6785 200.839 87.9925 200.383 88.4706C200.06 88.808 199.603 89.0372 199.174 89.2447C198.538 89.5496 197.979 89.9501 197.434 90.385C195.384 92.0233 193.324 93.649 191.272 95.282C190.769 95.6825 190.278 96.0975 189.78 96.5053C189.193 96.9853 188.724 97.5735 188.305 98.196C187.708 99.0837 187.147 99.9985 186.567 100.899C186.336 101.26 186.107 101.622 185.854 101.969C184.867 103.327 184.138 104.82 183.75 106.444C183.503 107.479 183.355 108.553 183.301 109.616C183.077 114.009 183.194 118.403 183.324 122.796C183.344 123.493 183.38 124.189 183.436 124.884C183.633 127.291 183.631 129.7 183.582 132.112C183.526 134.79 183.488 137.469 183.523 140.147C183.541 141.644 183.71 143.14 183.833 144.636C183.943 145.971 184.138 147.303 184.196 148.638C184.259 150.141 184.465 151.626 184.618 153.116C184.712 154.018 184.898 154.915 185.068 155.808C185.304 157.082 185.459 158.343 185.555 159.61H214.548C214.545 159.522 214.537 159.433 214.55 159.349Z" fill="#19766D"/>
<path d="M179.217 154.834C179.006 153.565 178.728 152.308 178.76 151.009C178.768 150.693 178.722 150.361 178.623 150.063C178.26 148.979 178.177 147.865 178.214 146.738C178.232 146.202 178.271 145.668 178.3 145.132C178.311 144.921 178.371 144.692 178.313 144.5C178.103 143.804 178.226 143.124 178.318 142.433C178.412 141.743 178.461 141.047 178.515 140.354C178.531 140.139 178.477 139.943 178.311 139.771C178.212 139.668 178.12 139.499 178.125 139.362C178.156 138.68 178.219 137.999 178.264 137.315C178.112 137.315 177.968 137.346 177.894 137.496C177.678 137.931 177.553 138.385 177.53 138.882C177.418 141.399 177.286 143.914 177.161 146.429C177.104 147.607 177.042 148.784 176.994 149.962C176.947 151.086 176.916 152.212 176.878 153.336C176.855 154.033 176.867 154.733 176.799 155.426C176.658 156.819 176.605 158.215 176.582 159.612H179.645C179.724 158.004 179.48 156.418 179.217 154.834Z" fill="#19766D"/>
<path d="M178.267 137.277C178.267 137.29 178.266 137.301 178.266 137.313C178.276 137.313 178.285 137.31 178.298 137.31L178.267 137.277Z" fill="#19766D"/>
<path d="M121.874 12.559C121.244 14.0204 120.625 15.4836 120.326 17.0532C120.475 16.8367 120.634 16.6274 120.777 16.4055C121.724 14.908 121.726 14.908 122.114 13.1814C122.15 13.0281 122.159 12.8639 122.148 12.7051C122.141 12.6276 122.064 12.5518 122.006 12.4832C121.997 12.476 121.89 12.5193 121.874 12.559Z" fill="#19766D"/>
<path d="M224.585 23.0745C224.549 23.0763 224.493 23.1304 224.486 23.1701C224.457 23.3198 224.444 23.4696 224.46 23.3415C224.46 23.7781 224.453 23.9351 224.462 24.0902C224.469 24.1913 224.505 24.2905 224.525 24.3915C224.549 24.5088 224.762 24.6008 224.901 24.5557C225.023 24.516 225.085 24.442 225.052 24.3266C224.944 23.9314 224.834 23.5381 224.715 23.1484C224.706 23.1087 224.628 23.0708 224.585 23.0745Z" fill="#19766D"/>
<path d="M125.572 2.91237C125.448 2.75179 125.119 2.73916 124.998 2.87809C124.859 3.04046 124.691 3.19201 124.607 3.37965C124.321 4.01112 124.067 4.65702 123.854 5.1676C123.84 5.36606 123.827 5.42199 123.834 5.47251C123.84 5.52303 123.859 5.61324 123.879 5.61504C123.959 5.62406 124.081 5.63489 124.119 5.58978C124.635 4.97455 125.197 4.40263 125.809 3.87941C125.848 3.84513 125.892 3.79822 125.901 3.75131C125.919 3.65028 125.953 3.5276 125.913 3.44641C125.821 3.25697 125.7 3.07835 125.572 2.91237Z" fill="#19766D"/>
<path d="M243.488 41.6643C243.336 40.7585 243.439 39.8528 243.477 38.9452C243.495 38.5175 243.506 38.0827 243.45 37.6605C243.286 36.3848 243.255 35.0965 243.1 33.8245C242.74 30.8942 242.639 27.9495 242.41 25.0121C242.302 23.6282 242.242 22.2316 241.862 20.8766C241.614 20.0033 241.391 19.1137 241.259 18.217C241.116 17.2534 240.79 16.3477 240.559 15.413C240.447 14.9601 240.145 14.666 239.732 14.4946C239.34 14.3322 238.932 14.2041 238.541 14.0652C238.317 14.1789 238.126 14.2727 237.938 14.3737C237.25 14.749 236.725 15.2398 236.644 16.086C236.624 16.2899 236.514 16.4974 236.404 16.6779C236.169 17.0586 236.13 17.4736 236.103 17.9066C236.029 19.0794 236.034 20.2613 235.698 21.4088C235.595 21.7589 235.639 22.1522 235.612 22.5257C235.536 23.4856 235.462 24.4473 235.377 25.4072C235.372 25.483 235.287 25.5534 235.24 25.6238C235.013 25.5335 234.868 25.3387 234.852 25.1384C234.787 24.3914 234.529 23.6859 234.464 22.9371C234.352 21.6596 234.28 20.3677 234.016 19.1173C233.661 17.4357 233.453 15.736 233.164 14.0471C232.899 12.4954 232.323 11.0646 231.737 9.62832C231.634 9.37571 231.466 9.17002 231.204 9.05454C231.008 8.96793 230.806 8.88854 230.623 8.78028C230.022 8.42483 229.394 8.4519 228.757 8.63052C228.553 8.68826 228.353 8.77668 228.158 8.86509C227.636 9.10326 227.31 9.50021 227.193 10.0686C227.106 10.4872 227.064 10.9292 226.897 11.3136C226.407 12.4395 225.889 13.5528 225.265 14.6119C225.238 14.657 225.205 14.7129 225.162 14.7328C225.072 14.7725 224.94 14.8483 224.881 14.814C224.386 14.5271 223.944 14.8825 223.478 14.906C222.924 14.9349 222.437 15.1279 221.986 15.4347C221.677 15.6458 221.363 15.8461 221.087 16.0283C220.75 16.6959 220.517 17.3419 220.436 18.0455C220.369 18.6302 220.242 19.2075 220.138 19.7867C220.013 20.4796 219.992 21.1616 220.194 21.8545C220.327 22.3128 220.41 22.7891 220.381 23.2817C220.34 24.0305 220.347 24.7811 220.318 25.5299C220.307 25.7916 220.251 26.0514 220.217 26.2986C219.984 26.4231 219.788 26.5115 219.611 26.6252C218.452 27.3686 217.808 28.4241 217.703 29.799C217.683 30.066 217.676 30.3349 217.678 30.6019C217.681 31.1955 217.593 31.7693 217.432 32.3449C217.115 33.4834 216.994 34.6617 216.848 35.8291C216.75 36.6248 216.673 37.4241 216.588 38.2216C216.498 39.0769 216.333 39.9051 216.16 40.7423C215.814 42.4149 215.518 44.1002 215.243 45.7872C215.063 46.8969 214.92 48.0156 214.826 49.1361C214.659 51.1641 214.55 53.1958 214.39 55.2257C214.344 55.8085 214.234 56.3841 213.975 56.9308C213.7 57.51 213.48 58.118 213.274 58.7261C212.897 59.8412 212.561 60.9671 212.552 62.1616C212.54 63.6664 212.289 65.1495 212.047 66.6291C211.883 67.6323 211.585 68.6121 211.41 69.6135C211.28 70.3659 211.049 71.0497 210.652 71.7083C210.351 72.2063 210.091 72.7674 209.986 73.3322C209.811 74.2759 209.356 75.0265 208.73 75.7103C208.297 76.1831 207.883 76.6648 207.506 77.1935C206.665 78.3717 205.729 79.4724 204.491 80.2789C203.505 80.9212 202.543 81.5997 201.527 82.1951C200.74 82.6552 199.959 83.1153 199.239 83.6837C198.824 84.0121 198.342 84.2647 197.867 84.5083C197.244 84.824 196.582 85.0874 196.066 85.5566C195.492 86.078 194.714 86.2043 194.128 86.6789C193.879 86.881 193.611 87.0614 193.348 87.2472C193.084 87.4331 192.83 87.6334 192.55 87.7867C191.655 88.2775 190.856 88.9144 189.997 89.4539C189.074 90.0349 188.394 90.8541 187.594 91.5542C187.113 91.9764 186.629 92.4076 186.212 92.8912C185.894 93.2611 185.548 93.5931 185.171 93.8872C184.49 94.4159 183.927 95.0582 183.337 95.6771C182.705 96.3393 182.115 97.0285 181.776 97.8946C180.83 99.1992 180.101 100.635 179.309 102.03C178.914 102.727 178.625 103.465 178.415 104.253C178.015 105.765 177.865 107.308 177.69 108.851C177.674 109 177.688 109.201 177.775 109.309C178.074 109.688 177.999 110.081 177.964 110.52C177.888 111.532 177.831 112.549 177.99 113.565C178.047 113.933 178.08 114.31 178.08 114.684C178.08 116.717 178.118 118.747 178.441 120.761C178.482 121.024 178.479 121.291 178.498 121.558C178.587 122.733 178.491 123.913 178.567 125.088C178.598 125.131 178.618 125.185 178.657 125.216C178.923 125.429 179.112 125.672 178.955 126.031C178.67 126.683 178.614 127.359 178.697 128.058C178.507 128.415 178.822 128.485 179.009 128.648C179.067 128.696 179.054 128.85 179.044 128.953C179.022 129.14 178.896 129.167 178.717 129.194C178.417 129.24 178.394 129.315 178.538 129.62C178.605 129.763 178.749 129.889 178.648 130.051C178.482 130.315 178.522 130.544 178.679 130.793C178.728 130.872 178.749 131.022 178.708 131.098C178.374 131.719 178.262 132.412 178.031 133.065C178.017 133.108 177.961 133.144 177.917 133.169C177.876 133.193 177.822 133.207 177.773 133.207C177.728 133.207 177.65 133.186 177.645 133.16C177.468 132.421 177.522 131.672 177.564 130.925C177.582 130.605 177.623 130.286 177.616 129.968C177.6 129.38 177.524 128.794 177.529 128.206C177.542 126.867 177.603 125.528 177.62 124.189C177.643 122.262 177.518 120.337 177.443 118.412C177.383 116.862 177.204 115.314 177.08 113.766C176.986 112.591 176.8 111.415 176.822 110.243C176.851 108.733 176.696 107.245 176.537 105.754C176.412 104.583 176.241 103.416 176.035 102.258C175.771 100.774 175.25 99.3634 174.734 97.9542C174.133 96.3176 173.191 94.9084 171.947 93.6815C170.444 92.1965 168.738 91.0003 166.858 90.0638C165.324 89.2988 163.806 88.5031 162.276 87.729C160.978 87.0704 159.776 86.2747 158.628 85.3906C158.247 85.0965 157.872 84.7897 157.479 84.5101C156.383 83.7306 155.374 82.8519 154.445 81.8793C154.111 81.5311 153.761 81.1991 153.412 80.8653C152.324 79.8206 151.348 78.6785 150.541 77.4082C149.622 75.9611 148.758 74.478 147.89 73.002C146.636 70.8675 145.753 68.5651 144.867 66.2664C144.638 65.6674 144.43 65.0539 144.275 64.4314C143.656 61.9306 143.207 59.3991 143.037 56.8243C142.925 55.112 142.658 53.4195 142.259 51.756C141.911 50.2962 141.58 48.8401 141.447 47.3425C141.337 46.1138 141.283 44.8778 141.077 43.6653C140.914 42.7054 140.864 41.7527 140.851 40.7892C140.844 40.2551 140.781 39.721 140.779 39.187C140.772 37.7958 140.572 36.4101 140.712 35.0153C140.81 34.0572 140.819 33.0919 140.689 32.1284C140.633 31.7062 140.622 31.2659 140.678 30.8455C140.801 29.9343 140.812 29.0303 140.662 28.1246C140.748 26.3455 140.344 24.6097 140.142 22.8595C140.039 21.961 139.756 21.0822 139.55 20.1963C139.525 20.0935 139.483 19.9906 139.433 19.8968C138.965 19.0415 138.37 18.2819 137.624 17.6576C137.052 17.1777 136.374 17.0586 135.664 17.3401C135.367 17.4573 135.092 17.6287 134.802 17.7677C134.758 17.7875 134.67 17.7911 134.648 17.7641C134.587 17.6883 134.502 17.5909 134.511 17.5079C134.571 16.8691 134.683 16.234 134.715 15.5953C134.771 14.473 134.796 13.3507 134.802 12.2284C134.804 11.8007 134.712 11.3767 134.47 11.0014C134.268 10.6857 134.083 10.3591 133.88 10.0451C133.502 9.46413 132.934 9.18987 132.27 9.11228C131.952 9.07439 131.627 9.11228 131.306 9.09063C131.154 9.08161 131.006 9.01304 130.826 8.96252C130.851 8.67744 130.848 8.40859 130.902 8.15057C131.012 7.62551 131.125 7.10045 131.286 6.58982C131.517 5.85185 131.515 5.11748 131.373 4.32899C131.185 4.1684 130.968 4.00962 130.792 3.81475C130.653 3.66319 130.465 3.4593 130.472 3.28428C130.494 2.75922 130.156 2.38391 130.01 1.93283C129.797 1.28146 129.277 0.893532 128.709 0.574165C128.48 0.444252 128.204 0.399144 127.964 0.280058C127.247 -0.0753965 126.502 -0.0663748 125.769 0.160971C124.72 0.485752 123.823 1.06855 123.168 1.95989C122.17 3.31495 121.488 4.81616 121.212 6.48697C121.134 6.96332 121.021 7.43605 120.988 7.91601C120.93 8.78389 120.698 9.60126 120.373 10.3988C120.212 10.7957 120.07 11.1999 119.898 11.5932C119.05 13.56 118.44 15.6205 117.547 17.5692C117.501 17.6666 117.46 17.7659 117.435 17.8705C117.009 19.7055 116.283 21.4359 115.601 23.1807C115.052 24.5845 114.654 26.0261 114.413 27.5111C114.217 28.7326 113.942 29.9271 113.446 31.0656C113.318 31.3579 113.257 31.6791 113.166 31.9876C112.84 33.119 112.522 34.2539 112.186 35.3816C111.959 36.1521 111.714 36.9153 111.719 37.7363C111.721 38.0502 111.607 38.366 111.546 38.6799C111.266 40.1505 110.977 41.6192 110.712 43.0933C110.645 43.4596 110.587 43.8494 110.645 44.2084C110.764 44.9626 110.685 45.7024 110.62 46.4494C110.499 47.8333 110.387 49.2173 110.421 50.6084C110.436 51.1425 110.389 51.6711 110.329 52.2052C110.19 53.4304 110.163 54.6681 110.376 55.8897C110.508 56.6367 110.54 57.3765 110.472 58.1289C110.438 58.5024 110.461 58.8795 110.447 59.2548C110.412 60.2309 110.526 61.1818 110.914 62.0858C111.215 62.7895 111.297 63.5383 111.326 64.2835C111.356 65.0918 111.461 65.8749 111.685 66.6525C111.816 67.1127 111.921 67.5962 111.93 68.0726C111.954 69.3049 111.99 70.5337 112.073 71.7624C112.147 72.8919 112.286 73.9944 112.845 75.0084C113.051 75.3819 113.21 75.7879 113.338 76.1939C113.616 77.0618 113.962 77.8936 114.376 78.7109C114.762 79.4742 115.078 80.2717 115.565 80.9844C115.713 81.2009 115.791 81.4679 115.888 81.7151C116.065 82.1644 116.211 82.6245 116.411 83.063C116.698 83.6963 116.956 84.3549 117.346 84.9233C117.743 85.5024 118.104 86.0925 118.359 86.7402C118.658 87.5016 119.086 88.1548 119.692 88.7106C119.961 88.9578 120.122 89.3204 120.369 89.5983C121.255 90.6015 122.057 91.6769 123.035 92.5989C123.934 93.4451 124.695 94.4123 125.417 95.4137C125.729 95.8467 126.07 96.2617 126.411 96.6731C127.229 97.6637 128.139 98.5731 128.974 99.5474C129.638 100.32 130.223 101.151 130.909 101.902C131.125 102.138 131.31 102.47 131.582 102.579C132.291 102.86 132.584 103.524 133.071 104.006C133.576 104.506 133.973 105.085 134.197 105.747C134.448 106.489 134.905 107.059 135.444 107.588C135.558 107.699 135.702 107.784 135.809 107.903C136.107 108.233 136.298 108.594 136.168 109.071C136.042 109.536 135.926 110.014 136.051 110.498C136.32 111.541 136.395 112.602 136.444 113.672C136.531 115.545 136.598 117.423 136.792 119.287C136.933 120.636 136.883 121.959 136.7 123.289C136.585 124.142 136.529 124.994 136.664 125.851C136.699 126.06 136.691 126.277 136.69 126.49C136.675 127.935 136.661 129.382 136.641 130.827C136.637 131.149 136.664 131.49 136.567 131.785C136.235 132.825 136.332 133.909 136.181 134.965C136.09 135.598 136.112 136.248 136.103 136.89C136.099 137.101 136.132 137.318 136.19 137.521C136.572 138.88 136.708 140.25 136.392 141.643C136.368 141.747 136.347 141.855 136.354 141.962C136.431 143.198 136.211 144.419 136.177 145.648C136.121 147.581 135.746 149.475 135.544 151.39C135.538 151.442 135.535 151.498 135.516 151.547C135.307 152.122 135.336 152.705 135.466 153.286C135.544 153.638 135.462 153.932 135.17 154.136C134.86 154.352 134.771 154.65 134.869 154.977C135.248 156.249 135.109 157.542 134.923 158.804C134.885 159.069 134.858 159.334 134.831 159.601H139.584C139.696 158.811 139.815 158.022 139.898 157.23C140.045 155.846 140.106 154.452 140.274 153.071C140.534 150.944 140.848 148.824 140.916 146.68C140.922 146.52 140.947 146.359 140.963 146.2C141.12 144.548 141.286 142.895 141.434 141.242C141.582 139.587 141.689 137.931 141.858 136.28C142.012 134.788 142.234 133.305 142.42 131.814C142.539 130.858 142.658 129.9 142.755 128.94C142.905 127.448 143.021 125.952 143.176 124.46C143.412 122.168 143.64 119.875 143.719 117.573C143.75 116.717 143.688 115.859 143.719 115.003C143.744 114.247 143.717 113.504 143.548 112.766C143.355 111.927 143.284 111.075 143.27 110.216C143.266 110.007 143.25 109.789 143.192 109.589C142.6 107.562 141.736 105.679 140.333 104.069C140.054 103.746 139.796 103.4 139.557 103.044C138.538 101.529 137.314 100.175 136.164 98.7625C135.794 98.3078 135.365 97.8982 134.941 97.4905C133.587 96.1877 132.295 94.8254 131.136 93.3513C129.841 91.7021 128.413 90.1739 126.881 88.7539C125.534 87.5089 124.417 86.069 123.19 84.7248C123.013 84.5299 122.885 84.2863 122.748 84.0572C122.033 82.8609 121.335 81.6556 120.604 80.4702C120.037 79.5517 119.622 78.572 119.256 77.5634C118.763 76.2047 118.315 74.8298 117.689 73.5199C117.39 72.8937 117.205 72.2153 116.946 71.5676C116.622 70.7628 116.467 69.9256 116.377 69.0686C116.198 67.3635 116.05 65.6548 115.686 63.9749C115.606 63.6086 115.543 63.2369 115.511 62.8634C115.399 61.577 115.137 60.3193 114.801 59.0761C114.561 58.1902 114.466 57.2899 114.448 56.3732C114.426 55.3033 114.383 54.2333 114.215 53.1706C114.116 52.5426 114.146 51.8895 114.173 51.2489C114.22 50.179 114.302 49.109 114.385 48.0408C114.435 47.4003 114.518 46.7634 114.578 46.1228C114.648 45.3758 114.764 44.6288 114.764 43.8836C114.765 42.2742 114.738 40.6665 115.067 39.0805C115.088 38.9758 115.087 38.8658 115.09 38.7593C115.13 37.6208 115.422 36.5346 115.807 35.4736C116.189 34.4163 116.599 33.368 117.02 32.3251C118.344 29.043 119.407 25.6743 120.313 22.2551C120.56 21.324 120.804 20.3894 121.217 19.5107C121.788 18.2927 122.387 17.1181 123.562 16.3278C124.488 15.7035 125.004 14.7526 125.273 13.6845C125.419 13.1035 125.632 12.5604 125.937 12.0533C126.186 11.6402 126.372 11.2089 126.514 10.7434C126.637 10.3428 126.879 9.97114 127.105 9.61028C127.175 9.4966 127.363 9.45511 127.507 9.37572C127.633 10.249 127.631 10.3284 127.46 10.812C127.316 11.2143 127.065 11.6095 127.043 12.0173C126.991 12.9393 126.702 13.7999 126.52 14.6877C126.455 15.0016 126.365 15.3246 126.381 15.6386C126.433 16.6382 126.13 17.5349 125.684 18.4064C125.515 18.7402 125.372 19.0885 125.244 19.4421C124.899 20.3984 124.542 21.3511 124.388 22.3651C124.175 23.7924 124.06 25.2286 123.784 26.6504C123.591 27.6518 123.379 28.6406 123.107 29.6204C122.679 31.1703 122.338 32.7383 122.185 34.3423C122.064 35.6234 121.86 36.89 121.62 38.1531C121.409 39.2573 121.308 40.3814 121.138 41.4947C121.062 41.9927 121.19 42.451 121.353 42.9039C121.378 42.9761 121.53 43.0554 121.613 43.0464C121.822 43.0194 122.048 42.9851 122.226 42.884C122.979 42.451 123.569 41.8393 124.069 41.132C124.325 40.7694 124.468 40.3832 124.442 39.9339C124.37 38.6384 124.601 37.3628 124.834 36.1051C125.246 33.893 125.762 31.7026 126.244 29.5049C126.3 29.2451 126.442 29.0069 126.514 28.7489C126.864 27.5129 127.234 26.2805 127.539 25.0337C127.704 24.3643 127.801 23.6715 127.893 22.9894C128.038 21.9249 128.204 20.8729 128.507 19.8409C128.566 19.637 128.635 19.4223 128.626 19.2148C128.602 18.6662 128.857 18.161 128.879 17.6414C128.904 17.0171 129.209 16.5227 129.404 15.976C129.673 15.22 129.909 14.4585 129.947 13.6466C129.951 13.578 130.034 13.5149 130.081 13.4463C130.411 13.7729 130.535 14.1771 130.564 14.6137C130.626 15.5754 130.656 16.5389 130.739 17.4988C130.846 18.7402 130.705 19.9636 130.476 21.1707C130.205 22.5979 130.165 24.0468 130.003 25.4812C129.873 26.6432 129.987 27.8323 129.96 29.0069C129.938 29.9163 129.949 30.8401 129.795 31.7314C129.613 32.7942 129.546 33.8587 129.478 34.9269C129.469 35.0875 129.525 35.2752 129.462 35.4051C129.066 36.2008 129.218 37.0939 128.998 37.9203C128.888 38.3317 128.797 38.7756 128.837 39.1906C128.929 40.1595 128.824 41.1176 128.799 42.0793C128.79 42.3987 128.828 42.7216 128.868 43.0392C129.093 44.8977 129.312 46.7561 129.29 48.6345C129.288 48.8419 129.323 49.0639 129.406 49.2497C129.46 49.3688 129.629 49.4825 129.761 49.5059C129.907 49.533 130.07 49.4464 130.227 49.4175C130.896 49.2948 131.403 48.9376 131.779 48.3782C131.809 48.3349 131.851 48.2988 131.887 48.2591C132.407 47.6836 132.692 47.0286 132.669 46.2329C132.632 45.0547 132.667 43.8746 132.611 42.6982C132.58 42.0522 132.584 41.4135 132.66 40.773C132.836 39.279 132.851 37.7796 132.883 36.2784C132.925 34.2972 133.024 32.3178 133.102 30.3367C133.105 30.2302 133.111 30.1184 133.145 30.0191C133.387 29.2938 133.331 28.536 133.383 27.789C133.414 27.3613 133.421 26.9283 133.495 26.5097C133.683 25.4542 133.89 24.4022 134.116 23.3557C134.183 23.0508 134.342 22.7657 134.462 22.459C134.591 22.5474 134.704 22.5853 134.746 22.661C135.062 23.2258 135.316 23.8176 135.32 24.478C135.325 25.557 135.522 26.6089 135.793 27.6428C135.975 28.3357 136.031 29.0195 135.892 29.7106C135.672 30.7842 135.682 31.8343 136.007 32.8862C136.15 33.3463 136.209 33.8263 136.119 34.3152C135.814 35.9698 135.948 37.6244 136.154 39.2772C136.206 39.7102 136.217 40.1288 136.098 40.551C135.968 41.0129 135.966 41.5001 135.766 41.953C135.639 42.2381 135.607 42.5719 135.572 42.8894C135.466 43.9071 135.516 44.9193 135.744 45.9207C135.84 46.3357 135.895 46.7616 135.964 47.1838C136.076 47.8694 136.175 48.5587 136.294 49.2443C136.422 49.9805 136.61 50.7094 136.69 51.4492C136.767 52.1637 137.17 52.7483 137.352 53.4177C137.505 53.9843 137.72 54.5364 137.924 55.0886C138.247 55.9637 138.341 56.8712 138.173 57.777C138.083 58.2642 138.09 58.7333 138.128 59.2133C138.207 60.2291 138.357 61.2359 138.615 62.2247C138.682 62.4827 138.825 62.757 138.787 63.0042C138.644 63.919 138.918 64.8175 138.841 65.7269C138.781 66.4306 138.927 67.1018 139.14 67.7767C139.431 68.6915 139.915 69.5449 139.999 70.5247C140.007 70.6239 140.082 70.7213 140.133 70.8151C140.566 71.6145 140.871 72.4733 141.266 73.2907C141.617 74.0124 141.983 74.7306 142.414 75.4054C142.732 75.9052 143.035 76.3996 143.235 76.9589C143.616 78.0271 144.165 79.0014 144.896 79.8729C145.098 80.1147 145.277 80.3926 145.396 80.6831C145.894 81.9046 146.717 82.8753 147.68 83.745C147.879 83.9237 148.166 84.0445 148.287 84.2611C148.662 84.9305 149.283 85.3798 149.723 85.9896C149.973 86.3324 150.281 86.641 150.604 86.917C151.539 87.7164 152.456 88.5373 153.479 89.2338C154.096 89.6524 154.685 90.1161 155.221 90.6502C155.558 90.9876 155.955 91.2908 156.374 91.5181C157.549 92.1568 158.677 92.884 159.913 93.4127C161.144 93.9395 162.387 94.4483 163.438 95.3126C163.561 95.4137 163.703 95.4967 163.851 95.5598C165.318 96.2022 166.365 97.3587 167.415 98.5027C167.887 99.0169 168.318 99.5618 168.626 100.197C168.93 100.821 169.17 101.474 169.583 102.046C169.698 102.205 169.718 102.445 169.745 102.653C169.782 102.916 169.801 103.187 169.791 103.454C169.722 105.121 170.148 106.754 170.123 108.418C170.119 108.681 170.166 108.957 170.245 109.21C170.473 109.939 170.493 110.684 170.485 111.436C170.482 111.757 170.467 112.084 170.518 112.4C170.594 112.872 170.66 113.367 171.014 113.733C171.256 113.982 171.357 114.285 171.384 114.601C171.442 115.294 171.494 115.99 171.482 116.683C171.474 117.127 171.512 117.531 171.756 117.91C171.935 118.186 171.96 118.498 171.985 118.827C172.102 120.319 171.987 121.824 172.223 123.311C172.272 123.626 172.305 123.953 172.276 124.269C172.194 125.136 172.332 125.986 172.51 126.822C172.736 127.888 172.734 128.944 172.586 130.017C172.454 130.97 172.342 131.933 172.44 132.899C172.505 133.541 172.48 134.178 172.442 134.822C172.388 135.782 172.397 136.746 172.375 137.709C172.371 137.927 172.37 138.157 172.532 138.31C172.882 138.642 172.897 139.026 172.853 139.479C172.779 140.273 172.77 141.072 172.671 141.866C172.483 143.351 172.332 144.842 172.346 146.343C172.346 146.397 172.339 146.451 172.342 146.503C172.361 146.834 172.274 147.124 172.101 147.413C171.814 147.886 171.704 148.4 171.839 148.956C171.875 149.105 171.9 149.286 171.855 149.426C171.651 150.06 171.723 150.709 171.758 151.343C171.796 152.041 171.758 152.725 171.695 153.416C171.657 153.838 171.561 154.26 171.66 154.693C171.875 155.65 171.828 156.606 171.635 157.562C171.572 157.874 171.534 158.203 171.561 158.518C171.592 158.881 171.648 159.24 171.696 159.601H176.576C176.6 158.205 176.652 156.808 176.793 155.415C176.863 154.722 176.849 154.022 176.872 153.326C176.91 152.202 176.943 151.076 176.988 149.952C177.037 148.773 177.098 147.597 177.156 146.419C177.278 143.902 177.41 141.386 177.524 138.871C177.547 138.377 177.674 137.922 177.888 137.485C177.964 137.336 178.107 137.305 178.258 137.305C178.258 137.292 178.26 137.281 178.26 137.269L178.235 137.242C178.244 137.253 178.257 137.267 178.26 137.269C178.269 137.272 178.289 137.301 178.289 137.301C178.278 137.301 178.271 137.305 178.258 137.305C178.213 137.989 178.148 138.669 178.118 139.351C178.112 139.486 178.204 139.656 178.304 139.761C178.47 139.932 178.526 140.131 178.507 140.343C178.452 141.038 178.403 141.735 178.311 142.422C178.217 143.115 178.094 143.795 178.305 144.49C178.363 144.681 178.304 144.91 178.293 145.121C178.264 145.655 178.224 146.191 178.206 146.727C178.17 147.855 178.253 148.97 178.616 150.053C178.715 150.352 178.762 150.684 178.753 150.998C178.72 152.297 178.998 153.555 179.21 154.823C179.473 156.407 179.715 157.993 179.635 159.599H185.555C185.459 158.333 185.302 157.071 185.066 155.816C184.896 154.922 184.71 154.028 184.617 153.124C184.463 151.633 184.256 150.148 184.194 148.645C184.138 147.308 183.942 145.977 183.832 144.643C183.709 143.147 183.539 141.652 183.521 140.154C183.487 137.476 183.525 134.797 183.581 132.119C183.631 129.707 183.633 127.298 183.434 124.891C183.379 124.196 183.342 123.5 183.323 122.803C183.193 118.41 183.077 114.015 183.299 109.623C183.353 108.56 183.501 107.485 183.748 106.451C184.137 104.825 184.864 103.333 185.853 101.976C186.106 101.63 186.335 101.267 186.566 100.906C187.145 100.006 187.706 99.0909 188.304 98.2032C188.722 97.5807 189.192 96.9925 189.778 96.5125C190.274 96.1047 190.767 95.6897 191.271 95.2892C193.323 93.6562 195.382 92.0287 197.432 90.3922C197.977 89.9555 198.538 89.5568 199.172 89.2519C199.603 89.0444 200.06 88.8152 200.381 88.4778C200.838 87.9996 201.385 87.6857 201.93 87.3483C202.928 86.733 203.974 86.1827 204.758 85.2733C204.862 85.1524 204.99 85.0514 205.119 84.9557C206.792 83.7053 208.479 82.4748 210.13 81.1973C210.805 80.6777 211.553 80.1959 211.998 79.4561C212.338 78.8932 212.755 78.4331 213.222 77.991C214.121 77.1339 214.85 76.1452 215.384 75.0229C216.285 73.1301 217.019 71.1814 217.432 69.1173C217.611 68.2205 217.618 67.3021 217.786 66.4144C218.008 65.2506 218.118 64.0832 218.189 62.9067C218.293 61.1944 218.512 59.5002 218.829 57.8131C219.037 56.7107 219.205 55.5974 219.324 54.4805C219.443 53.3636 219.493 52.2377 219.548 51.1154C219.64 49.2407 219.91 47.384 220.093 45.5184C220.123 45.2044 220.197 44.8832 220.445 44.6379C220.502 44.71 220.587 44.7696 220.609 44.849C220.876 45.7836 220.948 46.7399 220.977 47.7088C221.006 48.6705 220.919 49.6431 221.132 50.5922C221.289 51.2868 221.269 51.9761 221.17 52.6671C221.006 53.8327 220.789 54.9857 220.367 56.0918C220.145 56.6746 220.302 56.9651 220.872 57.2141C221.473 57.4757 222.116 57.5587 222.751 57.5533C223.442 57.5479 224.133 57.418 224.823 57.3368C225.139 57.2989 225.373 57.0228 225.384 56.6601C225.404 55.9637 225.404 55.2672 225.422 54.5707C225.433 54.1431 225.417 53.7064 225.491 53.2896C225.765 51.7487 225.781 50.197 225.783 48.6417C225.783 47.6764 225.855 46.7182 225.953 45.7547C226.077 44.5314 226.102 43.2954 226.117 42.0649C226.139 40.1902 226.084 38.3137 226.117 36.4389C226.144 34.8818 226.079 33.3355 225.918 31.7874C225.819 30.8293 225.803 29.8621 225.76 28.8986C225.752 28.7435 225.797 28.5865 225.859 28.1264C226.083 28.7633 226.323 29.0863 226.373 29.5157C226.436 30.0462 226.528 30.573 226.599 31.1035C226.619 31.2587 226.646 31.4337 226.599 31.5745C226.395 32.1573 226.512 32.7437 226.548 33.3283C226.601 34.1835 226.711 35.0352 226.745 35.8904C226.826 37.978 226.873 40.0675 226.945 42.1551C226.99 43.4939 227.084 44.8327 227.1 46.1715C227.113 47.0827 227.061 47.9903 227.277 48.8889C227.339 49.1433 227.301 49.4211 227.304 49.6882C227.33 51.1912 227.615 52.6617 227.766 54.1232C228.36 54.3596 228.896 54.5833 229.439 54.7872C229.586 54.8414 229.753 54.8522 229.912 54.8522C230.234 54.8522 230.555 54.8342 230.876 54.8215C230.93 54.8197 230.982 54.8107 231.035 54.8053C231.331 54.78 231.562 54.54 231.5 54.2766C231.306 53.434 231.295 52.5805 231.268 51.7217C231.214 50.0094 231.307 48.297 231.217 46.5847C231.172 45.7295 231.199 44.8706 231.181 44.0135C231.163 43.106 231.206 42.202 231.085 41.289C230.973 40.4518 231.195 39.5821 230.95 38.7413C231.006 38.043 230.878 37.3519 230.863 36.6627C230.849 35.9644 230.788 35.2733 230.715 34.5841C230.501 32.5055 230.241 30.4377 229.806 28.3862C229.394 26.4501 228.974 24.5105 228.828 22.5257C228.745 21.4034 228.602 20.2865 228.492 19.1678C228.472 18.9567 228.472 18.7402 228.49 18.5273C228.57 17.5115 228.66 16.4974 228.743 15.4816C228.77 15.1514 228.885 14.8573 229.082 14.5957C229.107 14.5632 229.158 14.5289 229.194 14.5307C229.243 14.5343 229.317 14.5614 229.335 14.5993C229.447 14.8356 229.602 15.0702 229.643 15.3228C229.862 16.6418 230.165 17.9355 230.522 19.2292C230.977 20.8729 231.448 22.5185 231.674 24.2272C231.786 25.0752 231.99 25.9125 231.964 26.7749C231.923 28.2256 232.179 29.6546 232.282 31.0945C232.341 31.9389 232.562 32.7834 232.802 33.6025C233.015 34.3315 233.121 35.0568 233.134 35.811C233.143 36.3433 233.177 36.89 233.309 37.4025C233.446 37.9311 233.5 38.4652 233.487 38.9921C233.453 40.2317 233.587 41.4496 233.778 42.6693C233.895 43.4163 233.926 44.1814 233.737 44.9067C233.311 46.5324 233.195 48.178 233.219 49.8452C233.229 50.6499 233.201 51.4528 232.993 52.2395C232.91 52.5553 233.033 52.7736 233.325 52.8674C233.783 53.0172 234.22 53.2012 234.65 53.4268C235.173 53.701 235.763 53.8111 236.353 53.8345C237.014 53.8598 237.377 53.5026 237.341 52.8764C237.319 52.5048 237.243 52.1367 237.198 51.7668C237.131 51.2381 237.007 50.7058 237.019 50.1772C237.052 48.9448 237.129 47.7142 237.232 46.4855C237.346 45.1521 237.555 43.8241 237.64 42.4907C237.768 40.4608 238.008 38.4382 238.059 36.4011C238.095 35.0099 238.171 33.6188 238.254 32.2276C238.369 30.3024 238.508 28.3772 238.645 26.4519C238.651 26.3581 238.738 26.2679 238.784 26.1795C238.817 26.2102 238.869 26.2372 238.88 26.2733C239.14 27.2621 238.994 28.296 239.207 29.2938C239.283 29.6546 239.23 30.0426 239.234 30.4179C239.25 31.8632 239.265 33.3084 239.279 34.7519C239.281 34.9666 239.263 35.1867 239.304 35.3942C239.524 36.4967 239.331 37.646 239.694 38.7341C239.759 38.9271 239.699 39.1581 239.708 39.3728C239.725 39.7481 239.716 40.127 239.777 40.4951C239.923 41.3522 239.86 42.2056 239.777 43.0572C239.694 43.9107 239.636 44.7714 239.477 45.6122C239.308 46.4981 239.355 47.4328 238.907 48.2628C238.835 48.3981 238.817 48.5749 238.819 48.7337C238.828 50.1772 238.597 51.6098 238.667 53.0605C238.716 54.0709 238.602 55.0904 238.534 56.1062C238.49 56.7467 238.404 57.3837 238.319 58.0224C238.135 59.4009 238.03 60.7903 237.489 62.1002C237.306 62.5423 237.194 63.0186 237.097 63.4914C236.756 65.1676 236.435 66.8492 236.103 68.5291C236.02 68.9495 235.868 69.3627 235.839 69.7867C235.756 70.9703 235.478 72.1016 235.157 73.242C234.908 74.1243 234.634 74.9778 234.208 75.7879C233.803 76.5529 233.561 77.3667 233.457 78.231C233.343 79.1909 233.163 80.1382 232.776 81.0331C232.693 81.2244 232.672 81.4445 232.637 81.652C232.571 82.0526 232.367 82.3575 231.986 82.4964C231.672 82.6119 231.403 82.7797 231.223 83.054C230.748 83.7685 230.255 84.4668 229.562 84.9954C229.479 85.0586 229.414 85.1542 229.364 85.2462C228.938 86.0113 228.284 86.567 227.647 87.1426C227.012 87.7164 226.388 88.3082 225.877 88.9993C225.55 89.4413 225.142 89.795 224.697 90.08C223.635 90.7567 222.874 91.7021 222.107 92.6729C221.246 93.7627 220.383 94.8489 219.324 95.7745C218.279 96.6893 217.324 97.7106 216.507 98.8383C215.749 99.8794 214.888 100.828 214.023 101.774C213.013 102.876 211.993 103.972 210.991 105.081C210.329 105.816 209.908 106.671 209.816 107.671C209.757 108.309 209.695 108.948 209.804 109.589C209.847 109.852 209.908 110.132 209.86 110.386C209.658 111.447 209.807 112.535 209.638 113.587C209.443 114.808 209.603 116.052 209.345 117.264C209.313 117.418 209.331 117.585 209.345 117.744C209.454 119.022 209.257 120.319 209.625 121.578C209.656 121.679 209.65 121.791 209.652 121.898C209.677 123.449 209.757 124.996 210.082 126.52C210.138 126.78 210.163 127.054 210.152 127.32C210.08 128.933 210.423 130.522 210.399 132.132C210.396 132.343 210.446 132.558 210.484 132.769C210.721 134.084 210.973 135.398 211.197 136.715C211.35 137.613 211.482 138.514 211.599 139.418C211.78 140.798 211.937 142.182 212.112 143.562C212.228 144.465 212.356 145.365 212.482 146.267C212.549 146.742 212.641 147.198 212.818 147.658C213.018 148.185 213.229 148.768 213.016 149.378C212.969 149.511 213.058 149.688 213.078 149.845C213.132 150.267 213.231 150.691 213.226 151.115C213.213 151.999 213.399 152.855 213.879 153.562C214.395 154.32 214.541 155.125 214.552 155.985C214.565 157.108 214.733 158.23 214.548 159.356C214.534 159.441 214.543 159.529 214.547 159.617H219.425C219.353 159.181 219.275 158.748 219.206 158.311C219.001 156.988 218.835 155.659 218.674 154.329C218.611 153.8 218.598 153.266 218.532 152.734C218.32 151.088 218.057 149.445 218.026 147.779C218.021 147.46 217.996 147.135 217.938 146.821C217.579 144.872 217.425 142.897 217.164 140.933C217.088 140.352 217.118 139.759 217.05 139.176C216.862 137.581 216.714 135.984 216.656 134.378C216.644 134.003 216.644 133.628 216.604 133.254C216.48 132.083 216.369 130.91 216.447 129.729C216.458 129.57 216.483 129.402 216.449 129.25C216.23 128.247 216.294 127.235 216.303 126.223C216.306 125.8 216.258 125.375 216.196 124.956C216.147 124.631 216.12 124.317 216.267 124.016C216.483 123.57 216.573 123.092 216.543 122.61C216.512 122.118 216.618 121.652 216.692 121.178C216.813 120.384 216.918 119.588 217.035 118.794C217.091 118.424 217.149 118.053 217.225 117.686C217.591 115.904 217.929 114.116 218.113 112.304C218.156 111.878 218.241 111.454 218.266 111.028C218.308 110.361 218.551 109.773 218.939 109.248C219.481 108.517 220.053 107.806 220.614 107.091C221.013 106.586 221.43 106.097 221.816 105.585C222.558 104.601 223.262 103.591 224.02 102.618C225.173 101.139 226.355 99.6827 227.53 98.2212C228.912 96.4999 230.486 94.9824 232.208 93.5967C233.166 92.8262 234.042 91.9493 234.92 91.0869C235.379 90.6376 235.783 90.136 236.312 89.7571C236.474 89.6416 236.599 89.4431 236.691 89.2591C236.906 88.8296 237.104 88.3912 237.283 87.9455C237.503 87.4006 237.64 86.8178 237.907 86.2982C238.68 84.7988 238.813 83.1225 239.29 81.5437C239.29 80.6813 239.497 79.8459 239.625 78.9996C239.851 77.5183 240.023 76.0279 240.423 74.5772C240.508 74.2687 240.55 73.9457 240.595 73.6299C240.878 71.6199 241.232 69.6189 241.421 67.598C241.537 66.3621 241.892 65.1838 242.293 64.0218C242.647 62.997 242.719 61.9505 242.74 60.8751C242.762 59.7546 242.654 58.6359 242.753 57.5118C242.852 56.3931 242.807 55.2618 242.865 54.1377C242.926 52.9649 243.073 51.7993 243.047 50.6174C243.026 49.6557 243.098 48.6904 243.15 47.7287C243.201 46.767 243.278 45.8089 243.343 44.849C243.085 43.8836 243.406 42.9418 243.473 41.9909C243.48 41.8772 243.504 41.7672 243.488 41.6643ZM122.113 13.1811C121.725 14.9096 121.723 14.9096 120.775 16.4054C120.634 16.6273 120.476 16.8366 120.324 17.0532C120.624 15.4834 121.244 14.0201 121.873 12.5586C121.889 12.5207 121.995 12.4756 122.002 12.4828C122.06 12.5513 122.138 12.6271 122.145 12.7047C122.159 12.8617 122.149 13.0259 122.113 13.1811ZM125.899 3.7516C125.89 3.79851 125.847 3.84723 125.807 3.87971C125.195 4.40296 124.636 4.97494 124.118 5.59022C124.08 5.63533 123.957 5.6245 123.878 5.61548C123.858 5.61367 123.838 5.52346 123.832 5.47294C123.827 5.42061 123.838 5.36648 123.852 5.168C124.065 4.65557 124.32 4.01142 124.605 3.37991C124.69 3.19225 124.859 3.04069 124.997 2.8783C125.116 2.73937 125.446 2.752 125.57 2.91258C125.7 3.07858 125.82 3.25721 125.912 3.44667C125.951 3.52786 125.919 3.65056 125.899 3.7516ZM224.902 24.552C224.762 24.5971 224.549 24.5069 224.527 24.3878C224.507 24.2867 224.471 24.1893 224.464 24.0865C224.453 23.9313 224.462 23.7761 224.462 23.3377C224.446 23.4658 224.458 23.316 224.487 23.1663C224.494 23.1284 224.55 23.0724 224.586 23.0706C224.63 23.0688 224.707 23.1049 224.718 23.141C224.837 23.5325 224.947 23.9259 225.056 24.3192C225.085 24.4383 225.025 24.5123 224.902 24.552Z" fill="#19766D"/>
<path d="M178.268 137.277L178.296 137.31L178.268 137.277Z" fill="#19766D"/>
<path d="M171.911 142.532C171.78 142.952 171.78 142.952 171.904 143.426C171.913 143.129 172.095 142.832 171.911 142.532Z" fill="#19766D"/>
<path d="M178.266 137.275C178.263 137.273 178.253 137.261 178.242 137.251L178.266 137.275V137.275Z" fill="#19766D"/>
<path d="M178.296 137.311L178.268 137.276V137.278L178.296 137.311Z" fill="#19766D"/>
<rect x="45" y="5.27051" width="51.1796" height="39.5372" rx="17" fill="#E39FF9"/>
</svg>
